<svg xmlns="http://www.w3.org/2000/svg" xmlns:xlink="http://www.w3.org/1999/xlink" width="300" viewBox="0 0 224.87999 225" height="300" preserveAspectRatio="xMidYMid meet"><defs><clipPath id="71f395cb80"><path d="M 10.1875 12.164062 L 57 12.164062 L 57 59 L 10.1875 59 Z M 10.1875 12.164062 " clip-rule="nonzero"></path></clipPath><clipPath id="35bb6583b7"><path d="M 168 12.164062 L 214.828125 12.164062 L 214.828125 59 L 168 59 Z M 168 12.164062 " clip-rule="nonzero"></path></clipPath><clipPath id="e31b1ff2e3"><path d="M 13 16 L 212 16 L 212 213.054688 L 13 213.054688 Z M 13 16 " clip-rule="nonzero"></path></clipPath></defs><g clip-path="url(#71f395cb80)"><path fill="#38b6ff" d="M 13.695312 32.164062 L 27.777344 46.253906 L 34.777344 57.953125 C 35.027344 58.414062 35.488281 58.707031 35.992188 58.75 C 36.078125 58.75 36.117188 58.75 36.203125 58.75 C 36.664062 58.75 37.082031 58.582031 37.375 58.246094 L 56.363281 39.25 C 56.742188 38.875 56.90625 38.371094 56.824219 37.867188 C 56.742188 37.363281 56.445312 36.902344 56.027344 36.652344 L 44.375 29.648438 L 30.292969 15.558594 C 29.621094 14.890625 28.574219 14.890625 27.902344 15.558594 L 26.144531 13.796875 C 24.507812 12.164062 21.867188 12.164062 20.234375 13.796875 L 11.933594 22.101562 C 10.300781 23.734375 10.300781 26.378906 11.933594 28.011719 L 13.695312 29.773438 C 13.023438 30.445312 13.023438 31.492188 13.695312 32.164062 Z M 40.980469 30.992188 L 29.121094 42.855469 L 17.257812 30.992188 L 29.121094 19.125 Z M 40.980469 30.992188 " fill-opacity="1" fill-rule="nonzero"></path></g><g clip-path="url(#35bb6583b7)"><path fill="#38b6ff" d="M 214.671875 25.582031 C 214.710938 24.449219 214.292969 23.402344 213.539062 22.605469 L 205.449219 14.09375 C 204.695312 13.296875 203.648438 12.835938 202.515625 12.792969 C 201.382812 12.792969 200.335938 13.167969 199.539062 13.925781 L 197.695312 15.644531 C 197.402344 15.308594 196.984375 15.140625 196.523438 15.140625 C 196.0625 15.140625 195.640625 15.308594 195.308594 15.601562 L 180.886719 29.3125 L 169.027344 36.023438 C 168.566406 36.273438 168.273438 36.734375 168.1875 37.238281 C 168.105469 37.742188 168.273438 38.285156 168.648438 38.621094 L 187.132812 58.078125 C 187.46875 58.414062 187.886719 58.582031 188.347656 58.582031 C 188.390625 58.582031 188.476562 58.582031 188.515625 58.582031 C 189.019531 58.539062 189.480469 58.246094 189.773438 57.828125 L 197.066406 46.335938 L 211.484375 32.625 C 212.15625 31.996094 212.199219 30.90625 211.527344 30.234375 L 213.371094 28.515625 C 214.167969 27.761719 214.628906 26.714844 214.671875 25.582031 Z M 195.808594 42.898438 L 190.027344 36.820312 L 184.242188 30.738281 L 196.398438 19.207031 L 207.921875 31.367188 Z M 195.808594 42.898438 " fill-opacity="1" fill-rule="nonzero"></path></g><g clip-path="url(#e31b1ff2e3)"><path fill="#38b6ff" d="M 210.355469 139.550781 L 168.3125 111.332031 L 187.511719 64.410156 C 187.847656 63.570312 187.46875 62.566406 186.589844 62.230469 C 185.75 61.894531 184.746094 62.269531 184.410156 63.152344 L 165.464844 109.445312 L 132.8125 87.554688 L 150.25 52.207031 L 164.625 42.5625 C 165.378906 42.058594 165.589844 41.011719 165.085938 40.257812 C 164.585938 39.503906 163.535156 39.292969 162.78125 39.796875 L 153.226562 46.167969 L 158.800781 34.890625 C 160.265625 31.871094 159.136719 28.308594 156.160156 26.753906 L 154.609375 25.957031 L 155.949219 23.105469 C 156.242188 22.4375 156.410156 21.765625 156.410156 21.011719 C 156.410156 18.957031 155.195312 17.152344 153.265625 16.398438 C 150.878906 15.476562 148.152344 16.523438 147.023438 18.789062 L 123.71875 65.960938 L 118.4375 69.484375 C 120.953125 66.507812 122.335938 62.691406 122.335938 58.707031 C 122.335938 49.441406 114.832031 41.933594 105.570312 41.933594 C 96.558594 41.933594 89.222656 49.0625 88.804688 57.996094 L 61.601562 39.753906 C 60.847656 39.25 59.800781 39.460938 59.296875 40.214844 C 58.792969 40.96875 59.003906 42.019531 59.757812 42.523438 L 89.179688 62.269531 C 90.566406 68.730469 95.636719 73.84375 102.214844 75.144531 L 102.214844 80.972656 L 95.761719 81.558594 C 90.898438 81.980469 86.121094 83.070312 81.511719 84.746094 L 65.164062 90.742188 C 60.722656 92.378906 57.117188 95.691406 55.023438 99.839844 L 39.976562 63.066406 C 39.640625 62.230469 38.632812 61.808594 37.796875 62.144531 C 36.957031 62.480469 36.539062 63.488281 36.875 64.324219 L 53.304688 104.496094 L 49.867188 115.441406 L 14.03125 139.464844 C 13.277344 139.96875 13.066406 141.019531 13.570312 141.773438 C 13.90625 142.277344 14.40625 142.527344 14.953125 142.527344 C 15.289062 142.527344 15.582031 142.445312 15.875 142.234375 L 48.230469 120.515625 L 41.527344 141.730469 C 41.230469 142.613281 41.316406 143.535156 41.777344 144.332031 C 42.195312 145.128906 42.949219 145.714844 43.789062 145.964844 L 53.21875 148.691406 C 53.511719 148.773438 53.847656 148.816406 54.140625 148.816406 C 55.566406 148.816406 56.90625 147.894531 57.367188 146.46875 L 58.585938 142.484375 L 59.296875 142.863281 C 59.96875 143.199219 60.679688 143.367188 61.433594 143.367188 C 63.027344 143.367188 64.496094 142.570312 65.332031 141.226562 C 66.714844 139.132812 66.171875 136.320312 64.117188 134.855469 L 61.476562 132.96875 L 62.945312 128.144531 L 75.140625 157.917969 L 60.34375 210.792969 C 60.21875 211.296875 60.304688 211.839844 60.636719 212.257812 C 60.972656 212.679688 61.433594 212.929688 61.980469 212.929688 L 88.804688 212.929688 C 89.433594 212.929688 90.019531 212.554688 90.3125 211.964844 C 90.605469 211.378906 90.523438 210.707031 90.105469 210.203125 L 85.285156 204.167969 L 88.886719 191.546875 L 97.1875 211.882812 C 97.4375 212.511719 98.066406 212.929688 98.738281 212.929688 C 98.949219 212.929688 99.15625 212.886719 99.367188 212.804688 C 100.203125 212.46875 100.625 211.460938 100.289062 210.625 L 90.398438 186.472656 L 101.042969 149.320312 L 111.226562 149.320312 L 117.304688 161.4375 L 117.304688 211.378906 C 117.304688 212.300781 118.058594 213.054688 118.980469 213.054688 L 142.453125 213.054688 C 143.125 213.054688 143.753906 212.636719 144.003906 212.007812 C 144.257812 211.378906 144.128906 210.664062 143.628906 210.164062 L 137.425781 203.957031 L 137.425781 186.890625 L 167.015625 114.515625 L 208.46875 142.316406 C 208.761719 142.527344 209.097656 142.613281 209.390625 142.613281 C 209.933594 142.613281 210.480469 142.359375 210.773438 141.855469 C 211.359375 141.101562 211.148438 140.054688 210.355469 139.550781 Z M 150 20.296875 C 150.375 19.542969 151.253906 19.207031 152.011719 19.542969 C 152.636719 19.792969 153.015625 20.382812 153.015625 21.011719 C 153.015625 21.261719 152.972656 21.472656 152.847656 21.683594 L 150.835938 26 C 150.460938 26.796875 150.792969 27.761719 151.589844 28.179688 L 154.566406 29.734375 C 155.90625 30.445312 156.453125 32.082031 155.78125 33.421875 L 153.015625 39.042969 L 143.710938 33.046875 Z M 103.179688 84.285156 L 105.820312 88.5625 C 106.113281 89.066406 106.660156 89.359375 107.246094 89.359375 C 107.246094 89.359375 107.246094 89.359375 107.289062 89.359375 C 107.875 89.359375 108.417969 89.023438 108.714844 88.519531 L 111.5625 83.53125 L 113.324219 83.363281 L 107.957031 99.675781 L 100.332031 84.535156 Z M 112.277344 71.285156 L 112.277344 72.167969 C 112.277344 73.59375 111.394531 74.851562 110.054688 75.3125 C 109.382812 75.5625 108.921875 76.191406 108.921875 76.90625 L 108.921875 81.351562 L 107.203125 84.367188 L 105.570312 81.726562 L 105.570312 74.261719 L 105.695312 73.59375 C 105.777344 73.046875 105.613281 72.503906 105.191406 72.125 C 104.773438 71.746094 104.226562 71.578125 103.683594 71.707031 C 102.929688 71.875 102.214844 71.246094 102.214844 70.488281 C 102.214844 69.820312 102.761719 69.230469 103.472656 69.230469 C 103.515625 69.230469 103.558594 69.230469 103.601562 69.230469 C 104.101562 69.316406 104.605469 69.191406 104.984375 68.855469 C 105.359375 68.519531 105.570312 68.058594 105.570312 67.554688 L 105.570312 67.136719 C 105.570312 65.289062 107.078125 63.78125 108.921875 63.78125 C 110.765625 63.78125 112.277344 65.289062 112.277344 67.136719 Z M 116.929688 79.671875 L 112.277344 80.09375 L 112.277344 77.953125 C 112.945312 77.574219 113.535156 77.074219 114.035156 76.484375 L 120.699219 72 Z M 62.1875 137.707031 C 62.777344 138.125 62.902344 138.921875 62.523438 139.507812 C 62.1875 140.054688 61.394531 140.261719 60.804688 139.96875 L 58.332031 138.710938 C 57.871094 138.503906 57.367188 138.460938 56.90625 138.671875 C 56.445312 138.878906 56.113281 139.257812 55.945312 139.71875 L 54.140625 145.628906 L 44.753906 142.90625 L 49.28125 128.480469 L 58.585938 131.207031 L 57.957031 133.261719 C 57.746094 133.933594 57.996094 134.6875 58.585938 135.105469 Z M 64.535156 123.199219 L 69.273438 107.808594 L 89.9375 100.933594 L 90.4375 103.949219 L 76.648438 152.800781 Z M 137.425781 178.042969 L 137.425781 161.269531 C 137.425781 158.671875 136.878906 156.15625 135.832031 153.765625 L 124.09375 127.347656 L 126.988281 114.390625 C 128.371094 108.1875 129.042969 101.769531 128.957031 95.4375 L 131.347656 90.574219 L 164.207031 112.628906 Z M 137.425781 178.042969 " fill-opacity="1" fill-rule="nonzero"></path></g></svg>