<svg xmlns="http://www.w3.org/2000/svg" xmlns:xlink="http://www.w3.org/1999/xlink" width="300" viewBox="0 0 224.87999 225" height="300" preserveAspectRatio="xMidYMid meet"><path fill="green" d="M 31.453125 54.183594 C 31.886719 55.21875 32.519531 56.15625 32.980469 57.175781 C 33.5 58.316406 33.816406 59.5 34.273438 60.660156 C 34.691406 61.722656 35.402344 62.617188 36.09375 63.519531 C 36.695312 64.300781 37.390625 64.917969 38.210938 65.429688 C 38.214844 66.125 38.441406 66.71875 38.542969 67.515625 C 38.675781 68.558594 38.214844 69.574219 38.34375 70.628906 C 38.445312 71.46875 38.683594 72.824219 39.40625 73.378906 C 40.507812 74.21875 40.699219 72.546875 40.757812 71.835938 C 40.839844 70.8125 41.164062 70.171875 41.753906 69.472656 C 42.054688 69.355469 42.386719 69.273438 42.613281 69.164062 C 43.523438 68.722656 44.453125 68.246094 45.285156 67.683594 C 45.550781 67.507812 46.09375 67.160156 46.585938 66.78125 C 47.945312 66.601562 49.320312 66.507812 50.660156 66.253906 C 53.917969 65.636719 58.011719 66.160156 61.558594 66.113281 C 63.648438 66.082031 67.910156 65.421875 70.238281 64.269531 C 70.082031 67.171875 69.109375 69.855469 65.308594 69.722656 C 69.121094 71.671875 72.601562 68.3125 74.304688 64.988281 C 74.925781 67.757812 77.203125 69.96875 78.964844 72.15625 C 81.347656 75.113281 82.507812 78.140625 82.289062 81.917969 C 82.191406 83.617188 81.554688 85.6875 79.839844 86.511719 C 83.066406 85.292969 85.234375 81.339844 85.8125 78.171875 C 86.390625 75.042969 85.300781 72.585938 83.753906 70.171875 C 84.835938 70.613281 85.84375 71.171875 86.605469 72.285156 C 87.738281 73.925781 88.742188 77.15625 88.503906 79.097656 C 90.253906 75.910156 87.386719 70.015625 85.03125 67.671875 C 88.199219 67.492188 90.378906 71.128906 90.292969 73.910156 C 91.691406 72.082031 90.253906 67.488281 88.574219 66.097656 C 92.832031 67.785156 95.285156 73.242188 95.285156 77.488281 C 95.699219 75.21875 95.558594 73.433594 94.910156 71.15625 C 94.4375 69.480469 93.761719 68.074219 93.402344 66.503906 C 93.25 65.839844 93.15625 65.148438 93.15625 64.394531 L 92.902344 63.925781 C 93.214844 63.734375 93.558594 63.601562 93.921875 63.507812 C 95.238281 63.152344 96.8125 63.308594 98.152344 63.210938 C 99.378906 63.121094 100.507812 62.71875 101.675781 62.417969 C 104.957031 63.824219 110.046875 69.070312 111.910156 69.457031 C 113.214844 72.71875 114.976562 76.015625 115.367188 79.277344 C 114.902344 80.050781 114.308594 80.777344 113.894531 81.558594 C 113.253906 82.761719 112.773438 84.015625 112.242188 85.265625 C 111.617188 86.726562 110.574219 88.214844 109.84375 89.777344 C 103.699219 93.449219 103.105469 101.328125 100.886719 107.570312 C 99.652344 111.039062 98.222656 114.375 97.320312 117.957031 C 96.445312 121.457031 94.976562 125.007812 94.535156 128.574219 C 94.171875 131.507812 94.058594 134.421875 93.644531 137.3125 C 92.625 138.753906 91.355469 140.253906 90.847656 140.898438 C 89.472656 142.652344 87.757812 143.96875 86.230469 145.617188 C 82.960938 149.148438 80.546875 154.539062 78.386719 158.746094 C 76.273438 162.867188 73.417969 174.410156 70.292969 178.890625 C 69.085938 180.621094 67.386719 181.828125 66.96875 183.914062 C 66.707031 185.234375 66.613281 186.632812 66.582031 188.042969 C 65.769531 189.851562 65.152344 191.703125 64.679688 193.726562 C 63.542969 198.570312 60.867188 207.519531 69.394531 206.578125 C 75.882812 205.859375 74.320312 197.851562 74.820312 192.933594 C 75.851562 192.035156 76.589844 190.714844 76.894531 189.554688 C 77.164062 188.511719 77.285156 183.328125 76.660156 182.183594 C 77.75 181.023438 79.007812 180.113281 79.910156 178.753906 C 81.605469 176.214844 88.441406 167.105469 90.199219 164.96875 C 91.921875 162.875 93.03125 160.433594 94.273438 158.113281 C 95.328125 156.148438 97.253906 154.125 98.1875 152.03125 C 98.78125 151.550781 99.417969 151.121094 100 150.597656 C 101.105469 149.585938 102.027344 148.128906 102.804688 146.851562 C 106.015625 141.570312 107.753906 135.957031 110.054688 130.316406 C 111.246094 127.40625 113.039062 125.148438 114.929688 122.683594 C 115.878906 121.4375 116.765625 120.132812 117.734375 118.917969 C 118.375 118.109375 119.171875 117.476562 119.925781 116.8125 C 119.777344 119.484375 118.90625 121.972656 117.90625 124.53125 C 116.644531 127.75 115.941406 130.980469 115.089844 134.308594 C 113.539062 140.398438 111.65625 147.597656 115.828125 153.117188 C 117.050781 154.742188 118.789062 156.714844 120.71875 158 C 121.292969 159.753906 122.308594 161.519531 123.132812 162.777344 C 125.980469 167.121094 129.953125 170.773438 132.835938 175.109375 C 134.246094 177.226562 135.328125 179.601562 136.671875 181.773438 C 137.378906 182.90625 137.941406 184.136719 138.503906 185.324219 C 138.820312 185.988281 139.46875 186.796875 139.824219 187.613281 C 138.871094 191.445312 139.273438 195.550781 137.5625 199.136719 C 135.984375 202.441406 133.457031 205.574219 138.734375 206.671875 C 142.832031 207.53125 147.078125 206.574219 148.476562 202.363281 C 148.886719 201.132812 149.179688 199.847656 149.421875 198.542969 C 149.90625 195.929688 150.175781 193.226562 150.734375 190.6875 C 150.96875 189.613281 151.03125 188.652344 151.101562 187.789062 C 151.566406 182.167969 146.597656 181.417969 146.496094 181.417969 C 145.585938 179.546875 144.847656 177.167969 144.3125 175.65625 C 142.425781 170.347656 141.410156 165.183594 138.460938 160.300781 C 135.59375 155.546875 132.660156 151.304688 128.339844 147.851562 C 128.628906 144.351562 129.554688 141.257812 131.140625 137.910156 C 132.90625 134.195312 134.058594 130.28125 136.050781 126.664062 C 138.070312 122.992188 139.726562 119.730469 141.082031 115.742188 C 142.433594 111.769531 144.058594 108.058594 144.132812 103.808594 C 144.1875 100.523438 144.5 96.753906 142.515625 94.136719 C 142.480469 93.800781 142.433594 93.523438 142.398438 93.347656 C 141.761719 90.503906 140.125 88.023438 139.667969 85.074219 C 139.226562 82.230469 138.953125 79.316406 138.910156 76.363281 C 139.300781 74.132812 138.902344 71.335938 138.902344 69.378906 C 138.90625 63.679688 138.664062 58.5625 137.125 53.160156 C 136.402344 50.613281 135.667969 48.210938 134.851562 45.691406 C 134.453125 44.460938 133.816406 43.195312 133.667969 41.929688 C 133.519531 40.746094 133.875 39.6875 134.007812 38.59375 C 134.613281 38.296875 135.324219 38.203125 135.9375 38.050781 C 139.125 37.242188 142.453125 38.109375 145.6875 38.101562 C 148.828125 38.089844 156.507812 37.578125 157.792969 37.53125 C 162.246094 37.367188 166.082031 35.042969 170.59375 35.046875 C 173 35.046875 175.152344 35.429688 177.484375 35.429688 C 179.308594 35.429688 181.21875 35.15625 183.003906 35.070312 L 183.007812 35.113281 C 184.070312 36.175781 185.160156 36.820312 186.570312 37.367188 C 187.710938 37.8125 189.0625 38.316406 189.890625 39.25 C 190.367188 39.78125 190.984375 42.253906 191.859375 42.039062 C 192.429688 41.902344 192.523438 40.847656 192.496094 40.410156 C 192.457031 39.652344 192.085938 39.03125 191.605469 38.464844 C 190.796875 37.507812 190.082031 36.554688 189.390625 35.515625 C 189.414062 35.429688 189.4375 35.351562 189.460938 35.285156 C 189.65625 34.78125 189.628906 34.21875 189.84375 33.742188 C 190.089844 33.207031 190.757812 32.601562 191.371094 32.226562 C 192.574219 31.648438 193.789062 31.441406 195.109375 31.175781 C 196.402344 30.914062 202.527344 29.703125 200.640625 28.570312 C 199.445312 27.851562 197.679688 28.746094 196.457031 28.988281 C 195.191406 29.238281 193.933594 29.003906 192.691406 28.738281 C 193.105469 28.597656 193.558594 28.34375 193.894531 28.199219 C 194.480469 27.949219 195.003906 27.671875 195.539062 27.34375 C 196.707031 26.628906 197.84375 25.914062 199.035156 25.210938 C 199.597656 24.875 200.160156 24.441406 200.070312 23.730469 C 198.789062 23.050781 197.539062 23.75 196.359375 24.507812 C 195.304688 25.183594 194.023438 25.839844 192.832031 26.246094 C 192.277344 26.433594 191.398438 26.625 190.730469 26.601562 C 191.589844 24.429688 193.761719 23.390625 195.289062 21.636719 C 196.269531 20.511719 195.726562 19.4375 194.222656 20.085938 C 192.992188 20.613281 191.992188 21.800781 191.046875 22.707031 C 190.039062 23.679688 189.242188 24.644531 188.019531 25.25 L 188.007812 25.222656 C 187.933594 24.113281 188.019531 22.988281 188.078125 21.878906 C 188.132812 20.851562 188.925781 19.800781 188.816406 18.804688 C 188.648438 17.25 187.394531 19.144531 187.183594 19.660156 C 186.796875 20.597656 186.296875 21.523438 186.027344 22.503906 C 185.769531 23.433594 185.53125 24.335938 185.226562 25.246094 C 184.722656 25.449219 184.273438 25.925781 183.90625 26.265625 C 183.429688 26.707031 182.921875 27.085938 182.484375 27.570312 C 182.222656 27.859375 181.964844 28.140625 181.703125 28.40625 C 177.523438 28.671875 173.648438 28.503906 169.503906 28.191406 C 165.164062 27.859375 161.125 27.378906 156.910156 28.375 C 155.996094 28.589844 155.058594 28.847656 154.125 29.125 C 151.726562 28.996094 149.457031 29.820312 146.957031 29.578125 C 144.375 29.339844 141.664062 29.476562 139.089844 29.140625 C 136.621094 28.820312 134.195312 27.789062 131.742188 27.632812 C 129.175781 27.464844 126.792969 27.707031 124.414062 28.351562 C 122.855469 28.773438 119.996094 29.796875 118.816406 31.296875 C 116.578125 32.441406 114.542969 33.996094 111.863281 34.082031 C 109.835938 34.148438 107.953125 33.933594 106.109375 33.511719 C 105.933594 30.804688 105.03125 28.636719 102.511719 27.085938 C 99.871094 25.453125 97.097656 23.394531 94.320312 22.042969 C 89.210938 19.5625 80.738281 22.988281 76.5 26.027344 C 73.492188 28.183594 71.601562 29.644531 67.742188 28.640625 C 68 30.027344 70.027344 31.300781 71.707031 31.324219 C 70.441406 32.371094 69.164062 32.898438 67.070312 33.140625 C 64.761719 33.40625 62.09375 33.839844 61.054688 36.210938 C 63.1875 34.824219 65.015625 34.351562 67.671875 34.671875 C 69.902344 34.941406 71.128906 34.839844 72.523438 34.121094 C 71.871094 35.179688 70.816406 36.234375 70.195312 37.175781 C 69.3125 38.5 68.699219 40.113281 67.472656 41.183594 C 65.03125 43.3125 59.449219 44.382812 57.667969 41.015625 C 59.199219 43.949219 63.683594 44.726562 66.832031 44.140625 C 68.730469 43.789062 69.683594 42.605469 70.546875 41.328125 C 70.171875 42.484375 69.058594 43.761719 68.742188 44.757812 C 68.273438 46.238281 68.375 47.753906 67.425781 49.152344 C 65.597656 51.832031 62.054688 52.941406 61.398438 56.132812 C 63.363281 53.953125 65.507812 54.367188 68.125 53.910156 C 69.15625 53.730469 70.140625 53.132812 70.910156 52.347656 C 70.679688 53.324219 70.386719 54.289062 70.230469 55.316406 C 70.117188 56.042969 70.070312 56.777344 70.0625 57.515625 C 68.867188 57.570312 67.492188 57.359375 66.398438 57.53125 C 64.890625 57.765625 63.097656 58.433594 61.65625 58.871094 C 58.289062 59.886719 54.984375 60.328125 51.480469 60.96875 C 50.355469 61.171875 44.566406 60.878906 43.988281 60.789062 C 42.871094 60.613281 39.761719 59.808594 39.492188 59.355469 C 39.21875 58.886719 39 58.414062 38.773438 57.917969 C 38.304688 56.875 37.878906 55.746094 37.308594 54.746094 C 37.054688 54.292969 36.429688 53.945312 36.058594 54.273438 C 35.714844 53.628906 35.550781 52.585938 35.339844 52.105469 C 35.171875 51.726562 34.851562 51.121094 34.363281 51.097656 C 34.058594 51.082031 33.878906 51.257812 33.785156 51.492188 C 33.351562 50.722656 32.777344 49.558594 32.066406 50.558594 C 31.703125 51.066406 31.832031 51.824219 32.078125 52.507812 C 31.886719 52.382812 31.667969 52.332031 31.464844 52.425781 C 30.859375 52.707031 31.273438 53.757812 31.453125 54.183594 Z M 94.277344 52.578125 C 94.519531 51.503906 95.003906 49.351562 95.324219 48.316406 C 99.984375 48.9375 102.515625 47.707031 103.8125 47.21875 C 99.519531 50.640625 96.878906 50.023438 94.277344 52.578125 Z M 94.277344 52.578125 " fill-opacity="1" fill-rule="nonzero"></path></svg>