<svg xmlns="http://www.w3.org/2000/svg" xmlns:xlink="http://www.w3.org/1999/xlink" version="1.1" width="1080" height="1080" viewBox="0 0 1080 1080" xml:space="preserve">
<desc>Created with Fabric.js 3.5.0</desc>
<defs>
</defs>
<rect x="0" y="0" width="100%" height="100%" fill="none"/>
<g transform="matrix(30.7539 0 0 30.7539 540 540)" id="334659">
<g style="" vector-effect="non-scaling-stroke">
		<g transform="matrix(1 0 0 1 2.9356 9.1707)" id="Capa_1">
<path style="stroke: none; stroke-width: 1; stroke-dasharray: none; stroke-linecap: butt; stroke-dashoffset: 0; stroke-linejoin: miter; stroke-miterlimit: 4; is-custom-font: none; font-file-url: none; fill: #FFC301; fill-rule: nonzero; opacity: 1;" transform=" translate(-18.8981, -25.1332)" d="M 19.469 22.809 c 0.093 -0.625 0.605 -2.154 0.904 -3.158 c -0.105 0.002 -0.212 -0.007 -0.315 -0.036 c -0.222 -0.059 -0.415 -0.181 -0.56 -0.348 c -0.224 0.035 -0.449 0.003 -0.652 -0.092 c -0.208 -0.096 -0.375 -0.25 -0.489 -0.44 c -0.225 -0.004 -0.439 -0.073 -0.625 -0.204 c -0.078 -0.054 -0.143 -0.121 -0.202 -0.19 c 0.074 1.172 0.124 2.227 0.14 2.548 c 0.041 0.797 -0.435 2.653 -0.271 3.424 c 0.165 0.772 1.378 2.911 1.419 3.272 c 0.041 0.36 -0.338 0.518 -0.531 0.719 c -0.194 0.202 -0.132 0.509 0.023 0.689 c 0.156 0.181 0.583 0.345 0.739 0.689 s -0.082 1.677 -0.1 2.021 c -0.017 0.343 0.436 0.246 0.592 0 c 0.155 -0.246 0.846 -1.396 0.887 -2.095 c 0.041 -0.697 -0.275 -1.633 -0.345 -2.045 C 20.013 27.151 19.371 23.474 19.469 22.809 z" stroke-linecap="round"/>
</g>
		<g transform="matrix(1 0 0 1 -8.1106 -6.272)" id="Capa_1">
<path style="stroke: none; stroke-width: 1; stroke-dasharray: none; stroke-linecap: butt; stroke-dashoffset: 0; stroke-linejoin: miter; stroke-miterlimit: 4; is-custom-font: none; font-file-url: none; fill: #FFC301; fill-rule: nonzero; opacity: 1;" transform=" translate(-7.8519, -9.6906)" d="M 14.822 10.664 c -0.512 -0.146 -1.021 -0.292 -1.463 -0.418 c -1.634 -0.465 -7.724 -1.664 -8.277 -1.774 S 4.185 8.134 3.973 8.015 S 2.29 6.229 1.632 6.18 C 0.976 6.131 0.681 6.722 0.943 7.042 C 1.205 7.362 2.584 8.692 3.16 8.89 c 0.575 0.197 0.972 0.322 1.577 0.517 c 0.433 0.141 6.415 2.373 9.891 3.797 c -0.005 -0.027 -0.017 -0.052 -0.02 -0.079 c -0.021 -0.23 0.029 -0.453 0.137 -0.646 c -0.106 -0.191 -0.156 -0.414 -0.137 -0.642 c 0.021 -0.23 0.108 -0.441 0.248 -0.613 C 14.794 11.045 14.789 10.853 14.822 10.664 z" stroke-linecap="round"/>
</g>
		<g transform="matrix(1 0 0 1 4.8008 -6.2908)" id="Capa_1">
<path style="stroke: none; stroke-width: 1; stroke-dasharray: none; stroke-linecap: butt; stroke-dashoffset: 0; stroke-linejoin: miter; stroke-miterlimit: 4; is-custom-font: none; font-file-url: none; fill: #FFC301; fill-rule: nonzero; opacity: 1;" transform=" translate(-20.7633, -9.6717)" d="M 30.9 0.021 c -0.319 -0.147 -2.353 0.518 -2.784 1.01 c -0.431 0.493 -3.024 5.934 -3.424 6.701 c 0.025 -0.185 -0.505 -0.775 -0.342 -1.081 c 0.163 -0.305 0.958 -0.803 1.007 -1 c 0.049 -0.196 -0.542 -0.665 -0.468 -0.801 c 0.074 -0.135 0.209 -0.258 0.123 -0.369 c -0.086 -0.11 -0.689 -0.099 -0.862 -0.222 c -0.172 -0.123 -0.558 -0.44 -0.812 -0.64 c -0.254 -0.2 -1.527 -0.025 -2.021 0.394 s -0.656 1.057 -0.714 1.232 c -0.057 0.175 -0.283 0.185 -0.32 0.394 c -0.036 0.209 0.53 0.887 0.715 0.961 s 1.024 0.575 1.22 0.689 s -0.012 0.259 -0.16 0.172 c -0.148 -0.086 -7.454 -4.776 -7.957 -5.1 c -0.504 -0.322 -3.24 -0.185 -3.598 0 c -0.356 0.186 1.158 1.108 1.527 1.011 c 0.37 -0.1 1.22 -0.505 1.479 -0.346 c 0.259 0.16 6.898 5.531 7.145 5.913 c 0.247 0.382 0.428 1.89 0.223 2.217 c -0.051 0.081 -0.138 0.125 -0.243 0.149 c -1.338 -1.168 -3.224 -2.807 -3.411 -2.937 c -0.288 -0.204 -0.69 -0.133 -0.894 0.155 c -0.146 0.208 -0.146 0.47 -0.031 0.677 c -0.235 0.005 -0.463 0.136 -0.568 0.363 c -0.107 0.229 -0.062 0.487 0.087 0.672 c -0.233 0.045 -0.434 0.215 -0.498 0.458 c -0.065 0.245 0.023 0.489 0.201 0.646 c -0.221 0.086 -0.389 0.287 -0.411 0.538 c -0.021 0.251 0.108 0.478 0.312 0.601 c -0.203 0.123 -0.333 0.351 -0.312 0.601 c 0.022 0.252 0.19 0.451 0.411 0.538 c -0.179 0.156 -0.268 0.401 -0.202 0.645 c 0.064 0.246 0.265 0.413 0.499 0.459 c -0.149 0.185 -0.194 0.443 -0.087 0.669 c 0.106 0.23 0.333 0.361 0.568 0.367 c -0.114 0.208 -0.111 0.469 0.031 0.675 c 0.146 0.206 0.389 0.296 0.623 0.26 c -0.075 0.225 -0.029 0.48 0.149 0.658 c 0.178 0.179 0.435 0.224 0.658 0.148 c -0.035 0.232 0.055 0.479 0.262 0.624 c 0.208 0.145 0.467 0.145 0.675 0.032 c 0.006 0.235 0.138 0.463 0.365 0.568 c 0.229 0.107 0.486 0.062 0.671 -0.086 c 0.046 0.232 0.213 0.432 0.459 0.497 c 0.243 0.066 0.488 -0.023 0.644 -0.202 c 0.086 0.222 0.287 0.389 0.54 0.41 c 0.251 0.021 0.477 -0.108 0.6 -0.311 c 0.123 0.203 0.349 0.332 0.602 0.311 c 0.251 -0.022 0.45 -0.189 0.535 -0.41 c 0.158 0.179 0.402 0.268 0.647 0.202 c 0.244 -0.066 0.41 -0.266 0.457 -0.497 c 0.185 0.147 0.442 0.192 0.673 0.086 c 0.227 -0.106 0.358 -0.333 0.363 -0.57 c 0.208 0.114 0.468 0.114 0.676 -0.031 c 0.289 -0.203 0.36 -0.604 0.158 -0.895 c -0.136 -0.191 -1.895 -2.211 -3.066 -3.554 c 1.325 -1.071 2.713 -2.154 2.835 -2.467 c 0.238 -0.608 -0.113 -1.527 -0.147 -1.995 c -0.035 -0.468 3.019 -7.371 3.178 -7.76 c 0.16 -0.391 1.231 0.062 1.725 -0.173 C 31.097 1.043 31.22 0.169 30.9 0.021 z" stroke-linecap="round"/>
</g>
</g>
</g>
</svg>